<svg xmlns="http://www.w3.org/2000/svg" viewBox="0 0 64 64" role="img" aria-label="GO">
  <rect width="64" height="64" rx="16" fill="#111827"/>
  <path fill="#ffffff" d="M21.8 18.5c4.1 0 7.3 1.6 9.5 4.5l-4.1 3.4c-1.3-1.7-3-2.6-5.2-2.6-4.1 0-6.8 3-6.8 8.1 0 5.2 2.8 8.2 7.2 8.2 1.9 0 3.5-.4 4.8-1.3v-4.1h-5.5v-5h11.3v12.1c-2.6 2.3-6.3 3.6-10.9 3.6-7.8 0-13.1-5.4-13.1-13.5 0-8 5.2-13.4 12.8-13.4Z"/>
  <path fill="#5eead4" d="M45.2 18.5c7.3 0 12.3 5.5 12.3 13.4 0 8-5 13.5-12.3 13.5-7.2 0-12.2-5.5-12.2-13.5 0-7.9 5-13.4 12.2-13.4Zm0 5.3c-3.7 0-6.1 3.1-6.1 8.1 0 5.1 2.4 8.2 6.1 8.2 3.8 0 6.2-3.1 6.2-8.2 0-5-2.4-8.1-6.2-8.1Z"/>
</svg>
